<svg xmlns="http://www.w3.org/2000/svg" viewBox="0 0 500 500"><defs><style>.cls-1{fill:#e3b5b0;}.cls-2{fill:#fff;}.cls-3{fill:#eed5c1;}.cls-4{fill:#ca6e70;}.cls-5{fill:#db9e9f;}.cls-6{fill:#84ae9f;}.cls-7{fill:#c4ddd2;}.cls-8{fill:#f3d78a;}.cls-9{fill:#2e2035;}</style></defs><g id="BACKGROUND"><rect class="cls-1" width="500" height="500"/></g><g id="OBJECTS"><path class="cls-2" d="M500,88.29s-19.11.38-110.77,0c-5.38,0-4.25-21.18,11.63-20.59s7.74,13.53,18.87,6.47-21.22-20.59,13.49-27.06S454.4,61.82,454.4,61.82s-10-30,16.47-34.13S486.77,55.93,500,55.34Z"/><path class="cls-3" d="M388.75,74s-7.07,14.75,19.41,14.34,33.48-18.12,47.75-11.5,18.39,10.64,26.25,6.5,9.36-15.7,17.84-14.46V89.29H432.19c-3.72,0-39.36,3.08-44.53-.65S386.32,74.84,388.75,74Z"/><path class="cls-2" d="M0,140.5s18.81.37,109.06,0c5.3,0,4.19-20.85-11.45-20.27S90,133.55,79,126.6,99.93,106.33,65.75,100,44.9,114.44,44.9,114.44s9.85-29.55-16.22-33.6S13,108.64,0,108.06Z"/><path class="cls-3" d="M111.76,127.77s6.43,14.37-28.67,11.58C57.1,137.29,60,121.11,46,127.63s-15.53,9.72-23.27,5.65S9.85,119.52,1.5,120.74v20.1H68.27c3.66,0,39.7,3.58,43.86-1.12C115,136.48,113.43,129.68,111.76,127.77Z"/><path class="cls-2" d="M146.23,99.56s3.7,5.31,4.67,5.47a57.24,57.24,0,0,0,6.61-.65s-4.19,4.52-3.95,5,1.21,7.74,1.21,7.74-3.55-6-5-6-6.6.8-6.6.8,5.64-3.62,4.19-6.36Z"/><path class="cls-2" d="M368.3,107.69s-.69,6.44-.06,7.2a57.44,57.44,0,0,0,5.41,3.84s-6.13.66-6.26,1.18-4.16,6.64-4.16,6.64,1.23-6.83.14-7.78-5.52-3.72-5.52-3.72,6.64,1,7.34-2.06Z"/><path class="cls-2" d="M258.87,295.72s-.69,6.44-.06,7.2a55.64,55.64,0,0,0,5.41,3.84s-6.13.66-6.26,1.19-4.16,6.63-4.16,6.63,1.23-6.83.14-7.78-5.52-3.72-5.52-3.72,6.64,1,7.34-2.06Z"/><path class="cls-2" d="M249.81,79.42s1.75,6.24,2.61,6.71a57,57,0,0,0,6.45,1.56s-5.44,2.89-5.37,3.42-1.4,7.7-1.4,7.7-1.39-6.79-2.76-7.27-6.5-1.41-6.5-1.41,6.52-1.57,6-4.63Z"/><path class="cls-2" d="M395.83,199.75s-.69,6.44-.07,7.19a57.21,57.21,0,0,0,5.42,3.85s-6.13.66-6.26,1.18-4.16,6.63-4.16,6.63,1.23-6.82.14-7.77-5.52-3.73-5.52-3.73,6.64,1,7.34-2Z"/><path class="cls-2" d="M89,206.65s4.21,4.93,5.19,5a56.05,56.05,0,0,0,6.51-1.29s-3.72,4.9-3.43,5.36,2,7.58,2,7.58-4.11-5.59-5.56-5.44-6.49,1.45-6.49,1.45,5.25-4.17,3.54-6.75Z"/><path class="cls-4" d="M370.18,187.39s-6.9-18.42.49-20.54,4.92,9.13,4.92,8.92,5.85-9.09,10.84-1.69C388.4,177,375.1,187.51,370.18,187.39Z"/><path class="cls-4" d="M129.82,187.39s6.9-18.42-.49-20.54-4.92,9.13-4.92,8.92-5.85-9.09-10.84-1.69C111.6,177,124.9,187.51,129.82,187.39Z"/><path class="cls-4" d="M222.18,252c-18.29,11.32-41.73,47.64-46.39,97.84H191c9,0-2.12-80.05,59-90.75C320,246.81,317,349,317,349c3,0,8.51.17,15.46.47-2.53-27.13-9-67-25.57-84.05C280.64,238.34,248.87,235.48,222.18,252Z"/><path class="cls-5" d="M316.42,247.48c-33.07-31.5-76.73-26.66-107-9.69-23.8,13.34-54.15,52.38-59.08,112h25.45c4.66-50.2,28.1-86.52,46.39-97.84,26.69-16.52,58.46-13.66,84.71,13.39,16.55,17.06,23,56.92,25.57,84.05,5.63.25,12.17.55,19,.83C349.89,320.39,343,272.78,316.42,247.48Z"/><path class="cls-6" d="M265.69,148.81C143,148.81,93,241.78,91,349.83h15.7c1.73-88.08,58.07-159.73,99.34-173.22,49.73-16.25,90.31-20.48,139.09,27,32.13,31.29,44.55,115.64,48.17,147.45,7.84-.22,13.41-.84,14.7-2.13C413.08,343.89,403.64,148.81,265.69,148.81Z"/><path class="cls-7" d="M206,176.62c-41.27,13.49-97.61,85.14-99.34,173.22H127c2-76.12,52.75-135,86.3-149.09,41.2-17.27,74.34-15.31,115.7,20.07,30.31,25.92,41.62,95.11,45.49,130.23,6.9.16,13.39.2,18.79.05-3.62-31.81-16-116.16-48.17-147.45C296.35,156.14,255.77,160.37,206,176.62Z"/><path class="cls-8" d="M329,220.82c-41.36-35.38-74.5-37.34-115.7-20.07-33.55,14.07-84.28,73-86.3,149.09h23.32c4.93-59.67,35.28-98.71,59.08-112,30.27-17,73.93-21.81,107,9.69,26.57,25.3,33.47,72.91,35.06,102.79,7.6.32,15.55.62,23,.78C370.64,315.93,359.33,246.74,329,220.82Z"/><path class="cls-9" d="M255.11,229.24c-11.76-1.15-12.86-19.1-9.76-19.84,6.34-1.51-.78,13,11.81,12.08,9.41-.68,5.15-14.4,9.31-13.55S270.41,230.75,255.11,229.24Z"/><path class="cls-9" d="M231.2,216s4-20.81-16.73-19.28-12.46,30.39-1,31.21S230.9,220.53,231.2,216Z"/><path class="cls-2" d="M214.46,200.78s2.4-1.35,7,.37,6.18,6.88,3.34,8.64S206.74,204.77,214.46,200.78Z"/><path class="cls-2" d="M213.57,209.56s6.25,1.66,6.56,3.79-2.67,2.6-5.38,1.4C212.83,213.9,210.52,208.51,213.57,209.56Z"/><path class="cls-9" d="M209.34,199.83s-6.37-.9-8-10.41c-.67-3.84-5.05,10.47,3.95,13.78Z"/><path class="cls-9" d="M206.17,204s-6.23,1.6-11.37-6.57c-2.07-3.3-.68,11.6,8.9,11.24Z"/><path class="cls-9" d="M205.83,209s-4.73,4.37-13.13-.38c-3.39-1.92,4.91,10.54,13.17,5.66Z"/><path class="cls-9" d="M277.11,214.93s-2.91-21,17.73-18.36,10.84,31-.68,31.21S277.17,219.51,277.11,214.93Z"/><path class="cls-2" d="M290.75,200.66s2.32-1.48,7,0,6.55,6.54,3.8,8.44S283.25,205.05,290.75,200.66Z"/><path class="cls-2" d="M290.32,209.46s6.34,1.33,6.76,3.44-2.53,2.74-5.3,1.69C289.82,213.84,287.22,208.58,290.32,209.46Z"/><path class="cls-9" d="M300.93,200s6.42-.56,8.56-10c.86-3.79,4.48,10.73-4.68,13.55Z"/><path class="cls-9" d="M303.87,204.35s6.15,1.92,11.71-6c2.24-3.19.06,11.62-9.48,10.75Z"/><path class="cls-9" d="M304,209.35s4.49,4.61,13.13.31c3.49-1.73-5.46,10.26-13.45,5Z"/><path class="cls-1" d="M182.34,224.23s12.13-6.78,19.42,1.33c4.88,5.42-3.09,9.5-14.75,8.67S178.58,226.23,182.34,224.23Z"/><path class="cls-1" d="M326.57,224.06s-12.13-6.78-19.42,1.33c-4.89,5.42,3.08,9.5,14.75,8.67S330.33,226.06,326.57,224.06Z"/><path class="cls-2" d="M263.7,157.11s46.43-4.31,71.86,21.53c8.27,8.41-12.36-8.78-38.44-14.73C273.84,158.6,250.7,161.49,263.7,157.11Z"/><path class="cls-2" d="M340.78,182.37s10.07,8.08,9.73,11.07S335.72,180.72,340.78,182.37Z"/><path class="cls-2" d="M168.58,70.18H313.91c7.6,0,8.69-13.75-10.47-6.87S319.93,45.87,289,35.78,271.59,46.19,260.5,47s21.62-34-14.94-30.85S203,35.72,212,49.32s-10.11-13.75-21.88.51,4,14.27-3,16.09S179.25,58.6,168.58,70.18Z"/><path class="cls-3" d="M174.26,65.27s.66,6.32,15.16,2.82,21.67-13.39,43.84-5.65,32.16,5.6,45.66,0S288.39,75.2,319,65.27c0,0,1.36,4.91-5.12,4.91H168.58S171.43,66.29,174.26,65.27Z"/><path class="cls-2" d="M500,409.41s-17.71-2.44-28.52,4.24-2.14,36.67-5.32,35.19c-8.71-4.07,2.5-19.57-25.5-10s-19,28.25-14,29.4-8.86,18.55-14,3.7c-4.2-12.13-45.35-6.56-38.17,13.44,0,0-20.83-4.68-29.83,14.66H500Z"/><path class="cls-3" d="M353.45,489.33s12.67,9.8,38.34,7,41.63-12.76,58.2-7.16,40.05,10.26,50-.47V500H344.66S347.35,492.74,353.45,489.33Z"/><path class="cls-2" d="M0,404.83s18.6-2.56,30,4.46-2,42.28,10.32,32.23c9.53-7.77,12.18-25.7,33.54-3.13,14.41,15.23,8.48,27,3.23,28.2s9.65,10.54,12.17-5.77c4.06-26.35,45.15,7.6,37.61,28.61,0,0,32.38-2.32,36.36,10.57H0Z"/><path class="cls-3" d="M155,492.57a127.91,127.91,0,0,1-46.79,3.76c-25.66-2.8-41.63-12.76-58.2-7.16s-39.95,4.57-50-7.44V500H163.19S164.59,496.21,155,492.57Z"/><path class="cls-2" d="M353.21,467.63s-163.91-1.85-171.77-1.85,3.53-14.37,23.33-7.27-7.87-16,24-26.41,16.6,7.82,28.09,7.78c3.64,0-16.25-30.8,21.51-27.53S313.26,433,304.05,447s14.81-15.14,27-.41-4.14,14.74,3.11,16.61S342.19,455.67,353.21,467.63Z"/><path class="cls-3" d="M348.94,463.62s-15.61,7.72-29.28-1.62-46.33,7.29-55,2.31-37-4.65-45.33-1.45-35.21,4.68-35.94-3.76c0,0-4.46,1.57-8.73,8.53H353.21S352.62,465.59,348.94,463.62Z"/><path class="cls-2" d="M476.85,380.24H278.66c-3.75-6.24,10.54-18.28,17.5-12,18.68,16.92,3-26.28,31.95-38,24.17-9.74,23.95,10.61,32.6,7.05s-6.19-24,30.14-19.77,30.35,17.65,30.12,25,4.79-7,17.18-2.84c14.85,5,14.15,11.75,14.18,26,0,9.7,9.18,7.19,18.67,8.1C476.85,374.34,476.85,380.24,476.85,380.24Z"/><path class="cls-3" d="M284.38,368.86s-1.05,8.38,10.28,8.48c37.8.33,46.67-12.84,64.67-6.92s37.11,6.6,53.67,4.13c27.66-4.13,54.08,10,61.71.74,0,0,4,1.19,4.62,4.95h-203S276,372.75,284.38,368.86Z"/><path class="cls-2" d="M36.66,380l187,.26s-3.5-14.36-14.5-11.38c-19.3,5.23,6.92-27.23-23-39-32.5-12.82-30.82,14.52-35.82,3.5-4-8.78-2.9-25.95-24.85-23.18C89.1,314.76,90.73,326.22,91,335s-6.52.51-20.8,10.1-6.63,27.21-7.5,24c-2.94-10.9-16-6.56-22.06,2.46C39,373.88,36.66,380,36.66,380Z"/><path class="cls-3" d="M40.6,371.51s2.73,10.6,29.73,3.1S111.09,360,127,370.42c23.32,15.25,47.89-3.33,59.89,1.92s28.75,9.5,34.35,2.21a33.84,33.84,0,0,1,2.4,5.69h-187S38,374.66,40.6,371.51Z"/><circle class="cls-2" cx="119.62" cy="199.75" r="1.5"/><circle class="cls-2" cx="191.92" cy="97.31" r="1.5"/><circle class="cls-2" cx="54.46" cy="167.22" r="1.5"/><circle class="cls-2" cx="237.16" cy="287.34" r="1.5"/><circle class="cls-2" cx="394.8" cy="155.34" r="1.5"/><circle class="cls-2" cx="401.18" cy="245.53" r="1.5"/><circle class="cls-2" cx="460.16" cy="317.02" r="1.5"/><circle class="cls-2" cx="476.85" cy="392.84" r="1.5"/><circle class="cls-2" cx="385.09" cy="404.59" r="3.14"/><circle class="cls-2" cx="288.72" cy="302.58" r="3.14"/><circle class="cls-2" cx="41.66" cy="275.36" r="3.14"/><circle class="cls-2" cx="441.05" cy="153.84" r="3.14"/><circle class="cls-2" cx="147.2" cy="420.7" r="3.14"/><circle class="cls-2" cx="25.5" cy="25.83" r="3.14"/><circle class="cls-2" cx="342.62" cy="29.38" r="3.14"/><circle class="cls-2" cx="455.52" cy="270.61" r="3.14"/><circle class="cls-2" cx="461.66" cy="125.69" r="1.5"/><circle class="cls-2" cx="421.86" cy="122.36" r="0.64"/><circle class="cls-2" cx="393.3" cy="32.52" r="0.64"/><circle class="cls-2" cx="163.19" cy="28.83" r="0.64"/><circle class="cls-2" cx="103.37" cy="98.81" r="0.64"/><circle class="cls-2" cx="420.83" cy="278.5" r="0.64"/><circle class="cls-2" cx="226.17" cy="295.81" r="0.64"/><circle class="cls-2" cx="373.35" cy="417.56" r="0.64"/><circle class="cls-2" cx="114.89" cy="410.78" r="0.64"/><circle class="cls-2" cx="442.55" cy="27.33" r="1.5"/><circle class="cls-2" cx="43.16" cy="304.08" r="1.5"/><circle class="cls-2" cx="125.38" cy="425.34" r="1.5"/><circle class="cls-2" cx="238.66" cy="394.34" r="1.5"/><circle class="cls-2" cx="56.11" cy="395.84" r="1.5"/><circle class="cls-2" cx="74.16" cy="327.34" r="1.5"/><circle class="cls-2" cx="288.89" cy="344.72" r="1.5"/><circle class="cls-2" cx="422.33" cy="305.72" r="1.5"/><circle class="cls-2" cx="487.66" cy="193.82" r="1.5"/><circle class="cls-2" cx="422.33" cy="432.34" r="1.5"/><circle class="cls-2" cx="322.15" cy="401.45" r="1.5"/><circle class="cls-2" cx="276.33" cy="481.73" r="1.5"/><circle class="cls-2" cx="319.15" cy="106.84" r="1.5"/><circle class="cls-2" cx="367.25" cy="50.22" r="1.5"/><circle class="cls-2" cx="175.79" cy="19.92" r="1.5"/><circle class="cls-2" cx="27" cy="47.86" r="1.5"/><path class="cls-8" d="M435.57,220s.4-11.41,2-11.48l7.07,8.61s8.39-.68,9.71-.46-4.45,6.88-4.45,6.88,3.79,9.93,4,10.81S444,229.7,444,229.7s-5.74,11-7.06,10.82-.89-13.34-.89-13.34-5.94.33-9-.77S435.57,220,435.57,220Z"/><path class="cls-8" d="M45.75,213.31s-4.47-10.51-6-10l-3.5,10.57S28.2,216.26,27,217s6.62,4.81,6.62,4.81,0,10.63.15,11.53,7.61-7.9,7.61-7.9,9.32,8.24,10.48,7.56-4-12.77-4-12.77,5.66-1.83,8.15-4S45.75,213.31,45.75,213.31Z"/><path class="cls-8" d="M203.18,406s-4.1-10.66-5.63-10.21l-3.87,10.45s-8.15,2.09-9.33,2.73S190.8,414,190.8,414s-.34,10.63-.26,11.53,7.88-7.63,7.88-7.63,9,8.56,10.21,7.92-3.52-12.89-3.52-12.89l8.62-5.17C213.32,406.64,203.18,406,203.18,406Z"/></g></svg>